name rise30.9205peak61.366fall85.3838.mot
datacolumns 19
datarows 36
range 17.44660500000000 17.50493100000000
endheader
time	ground_force1_vx	ground_force1_vy	ground_force1_vz	ground_force1_px	ground_force1_py	ground_force1_pz	ground_force2_vx	ground_force2_vy	ground_force2_vz	ground_force2_px	ground_force2_py	ground_force2_pz	ground_torque1_x	ground_torque1_y	ground_torque1_z	ground_torque2_x	ground_torque2_y	ground_torque2_z	
17.44660500000000	58.98827200000000	770.36609999999996	64.91377400000000	0.33989000000000	0.00000000000000	0.11980800000000	0.00000000000000	0.00000000000000	0.00000000000000	0.00000000000000	0.00000000000000	0.00000000000000	0.00000000000000	29.72216600000000	0.00000000000000	0.00000000000000	0.00000000000000	0.00000000000000	
17.44826800000000	58.36870400000000	772.86476900000002	65.10307400000001	0.33884000000000	0.00000000000000	0.11983300000000	0.00000000000000	0.00000000000000	0.00000000000000	0.00000000000000	0.00000000000000	0.00000000000000	0.00000000000000	29.84871900000000	0.00000000000000	0.00000000000000	0.00000000000000	0.00000000000000	
17.44993900000000	57.75462600000000	775.26163199999996	65.28061599999999	0.33781500000000	0.00000000000000	0.11985800000000	0.00000000000000	0.00000000000000	0.00000000000000	0.00000000000000	0.00000000000000	0.00000000000000	0.00000000000000	29.96929500000000	0.00000000000000	0.00000000000000	0.00000000000000	0.00000000000000	
17.45160400000000	57.14648800000000	777.55420100000003	65.44575800000000	0.33681600000000	0.00000000000000	0.11988000000000	0.00000000000000	0.00000000000000	0.00000000000000	0.00000000000000	0.00000000000000	0.00000000000000	0.00000000000000	30.08343900000000	0.00000000000000	0.00000000000000	0.00000000000000	0.00000000000000	
17.45327000000000	56.54466700000000	779.74002599999994	65.59784600000000	0.33584100000000	0.00000000000000	0.11990100000000	0.00000000000000	0.00000000000000	0.00000000000000	0.00000000000000	0.00000000000000	0.00000000000000	0.00000000000000	30.19068600000000	0.00000000000000	0.00000000000000	0.00000000000000	0.00000000000000	
17.45493900000000	55.94946900000000	781.81670499999996	65.73621600000000	0.33489100000000	0.00000000000000	0.11991900000000	0.00000000000000	0.00000000000000	0.00000000000000	0.00000000000000	0.00000000000000	0.00000000000000	0.00000000000000	30.29056200000000	0.00000000000000	0.00000000000000	0.00000000000000	0.00000000000000	
17.45660300000000	55.36113100000000	783.78190500000005	65.86020200000000	0.33396300000000	0.00000000000000	0.11993600000000	0.00000000000000	0.00000000000000	0.00000000000000	0.00000000000000	0.00000000000000	0.00000000000000	0.00000000000000	30.38259200000000	0.00000000000000	0.00000000000000	0.00000000000000	0.00000000000000	
17.45826800000000	54.77982800000000	785.63337500000000	65.96914099999999	0.33305900000000	0.00000000000000	0.11995200000000	0.00000000000000	0.00000000000000	0.00000000000000	0.00000000000000	0.00000000000000	0.00000000000000	0.00000000000000	30.46630100000000	0.00000000000000	0.00000000000000	0.00000000000000	0.00000000000000	
17.45993200000000	54.20566900000000	787.36895700000002	66.06238000000000	0.33217500000000	0.00000000000000	0.11996500000000	0.00000000000000	0.00000000000000	0.00000000000000	0.00000000000000	0.00000000000000	0.00000000000000	0.00000000000000	30.54121700000000	0.00000000000000	0.00000000000000	0.00000000000000	0.00000000000000	
17.46160500000000	53.63870500000000	788.98660199999995	66.13928100000000	0.33131200000000	0.00000000000000	0.11997600000000	0.00000000000000	0.00000000000000	0.00000000000000	0.00000000000000	0.00000000000000	0.00000000000000	0.00000000000000	30.60687800000000	0.00000000000000	0.00000000000000	0.00000000000000	0.00000000000000	
17.46326600000000	53.07892900000000	790.48438299999998	66.19922900000000	0.33046800000000	0.00000000000000	0.11998600000000	0.00000000000000	0.00000000000000	0.00000000000000	0.00000000000000	0.00000000000000	0.00000000000000	0.00000000000000	30.66283400000000	0.00000000000000	0.00000000000000	0.00000000000000	0.00000000000000	
17.46493100000000	52.52628300000000	791.86050799999998	66.24163200000000	0.32964200000000	0.00000000000000	0.11999300000000	0.00000000000000	0.00000000000000	0.00000000000000	0.00000000000000	0.00000000000000	0.00000000000000	0.00000000000000	30.70864800000000	0.00000000000000	0.00000000000000	0.00000000000000	0.00000000000000	
17.46661300000000	51.98065800000000	793.11333000000002	66.26593600000000	0.32883200000000	0.00000000000000	0.11999900000000	0.00000000000000	0.00000000000000	0.00000000000000	0.00000000000000	0.00000000000000	0.00000000000000	0.00000000000000	30.74390500000000	0.00000000000000	0.00000000000000	0.00000000000000	0.00000000000000	
17.46827000000000	51.44189800000000	794.24135899999999	66.27162100000000	0.32803800000000	0.00000000000000	0.12000200000000	0.00000000000000	0.00000000000000	0.00000000000000	0.00000000000000	0.00000000000000	0.00000000000000	0.00000000000000	30.76821100000000	0.00000000000000	0.00000000000000	0.00000000000000	0.00000000000000	
17.46993300000000	50.90980600000000	795.24327300000004	66.25821000000001	0.32725700000000	0.00000000000000	0.12000400000000	0.00000000000000	0.00000000000000	0.00000000000000	0.00000000000000	0.00000000000000	0.00000000000000	0.00000000000000	30.78119800000000	0.00000000000000	0.00000000000000	0.00000000000000	0.00000000000000	
17.47159700000000	50.38414500000000	796.11792700000001	66.22527500000000	0.32648800000000	0.00000000000000	0.12000400000000	0.00000000000000	0.00000000000000	0.00000000000000	0.00000000000000	0.00000000000000	0.00000000000000	0.00000000000000	30.78252500000000	0.00000000000000	0.00000000000000	0.00000000000000	0.00000000000000	
17.47326600000000	49.86464400000000	796.86436400000002	66.17243800000000	0.32573000000000	0.00000000000000	0.12000200000000	0.00000000000000	0.00000000000000	0.00000000000000	0.00000000000000	0.00000000000000	0.00000000000000	0.00000000000000	30.77188400000000	0.00000000000000	0.00000000000000	0.00000000000000	0.00000000000000	
17.47493300000000	49.35100100000000	797.48182099999997	66.09937499999999	0.32498100000000	0.00000000000000	0.11999800000000	0.00000000000000	0.00000000000000	0.00000000000000	0.00000000000000	0.00000000000000	0.00000000000000	0.00000000000000	30.74900100000000	0.00000000000000	0.00000000000000	0.00000000000000	0.00000000000000	
17.47661000000000	48.84288400000000	797.96973400000002	66.00582400000000	0.32423900000000	0.00000000000000	0.11999200000000	0.00000000000000	0.00000000000000	0.00000000000000	0.00000000000000	0.00000000000000	0.00000000000000	0.00000000000000	30.71363600000000	0.00000000000000	0.00000000000000	0.00000000000000	0.00000000000000	
17.47827400000000	48.33994100000000	798.32775300000003	65.89158300000000	0.32350300000000	0.00000000000000	0.11998500000000	0.00000000000000	0.00000000000000	0.00000000000000	0.00000000000000	0.00000000000000	0.00000000000000	0.00000000000000	30.66559200000000	0.00000000000000	0.00000000000000	0.00000000000000	0.00000000000000	
17.47993800000000	47.84179900000000	798.55573700000002	65.75651400000000	0.32277000000000	0.00000000000000	0.11997600000000	0.00000000000000	0.00000000000000	0.00000000000000	0.00000000000000	0.00000000000000	0.00000000000000	0.00000000000000	30.60470700000000	0.00000000000000	0.00000000000000	0.00000000000000	0.00000000000000	
17.48161500000000	47.34806900000000	798.65376800000001	65.60054599999999	0.32204000000000	0.00000000000000	0.11996500000000	0.00000000000000	0.00000000000000	0.00000000000000	0.00000000000000	0.00000000000000	0.00000000000000	0.00000000000000	30.53086700000000	0.00000000000000	0.00000000000000	0.00000000000000	0.00000000000000	
17.48327000000000	46.85834900000000	798.62214800000004	65.42367700000000	0.32131100000000	0.00000000000000	0.11995300000000	0.00000000000000	0.00000000000000	0.00000000000000	0.00000000000000	0.00000000000000	0.00000000000000	0.00000000000000	30.44399700000000	0.00000000000000	0.00000000000000	0.00000000000000	0.00000000000000	
17.48493800000000	46.37223000000000	798.46140700000001	65.22597399999999	0.32058100000000	0.00000000000000	0.11993900000000	0.00000000000000	0.00000000000000	0.00000000000000	0.00000000000000	0.00000000000000	0.00000000000000	0.00000000000000	30.34406900000000	0.00000000000000	0.00000000000000	0.00000000000000	0.00000000000000	
17.48661300000000	45.88929600000000	798.17230199999995	65.00757500000000	0.31984700000000	0.00000000000000	0.11992400000000	0.00000000000000	0.00000000000000	0.00000000000000	0.00000000000000	0.00000000000000	0.00000000000000	0.00000000000000	30.23109900000000	0.00000000000000	0.00000000000000	0.00000000000000	0.00000000000000	
17.48827100000000	45.40913100000000	797.75582099999997	64.76868700000000	0.31910900000000	0.00000000000000	0.11990800000000	0.00000000000000	0.00000000000000	0.00000000000000	0.00000000000000	0.00000000000000	0.00000000000000	0.00000000000000	30.10515100000000	0.00000000000000	0.00000000000000	0.00000000000000	0.00000000000000	
17.48993900000000	44.93131900000000	797.21317999999997	64.50958799999999	0.31836600000000	0.00000000000000	0.11989000000000	0.00000000000000	0.00000000000000	0.00000000000000	0.00000000000000	0.00000000000000	0.00000000000000	0.00000000000000	29.96633400000000	0.00000000000000	0.00000000000000	0.00000000000000	0.00000000000000	
17.49161600000000	44.45545000000000	796.54582900000003	64.23062800000000	0.31761400000000	0.00000000000000	0.11987200000000	0.00000000000000	0.00000000000000	0.00000000000000	0.00000000000000	0.00000000000000	0.00000000000000	0.00000000000000	29.81480400000000	0.00000000000000	0.00000000000000	0.00000000000000	0.00000000000000	
17.49327000000000	43.98112100000000	795.75544200000002	63.93222200000000	0.31685300000000	0.00000000000000	0.11985200000000	0.00000000000000	0.00000000000000	0.00000000000000	0.00000000000000	0.00000000000000	0.00000000000000	0.00000000000000	29.65076200000000	0.00000000000000	0.00000000000000	0.00000000000000	0.00000000000000	
17.49493900000000	43.50793900000000	794.84392200000002	63.61485600000000	0.31608200000000	0.00000000000000	0.11983200000000	0.00000000000000	0.00000000000000	0.00000000000000	0.00000000000000	0.00000000000000	0.00000000000000	0.00000000000000	29.47445500000000	0.00000000000000	0.00000000000000	0.00000000000000	0.00000000000000	
17.49660000000000	43.03552600000000	793.81339800000001	63.27907800000000	0.31529800000000	0.00000000000000	0.11981100000000	0.00000000000000	0.00000000000000	0.00000000000000	0.00000000000000	0.00000000000000	0.00000000000000	0.00000000000000	29.28617400000000	0.00000000000000	0.00000000000000	0.00000000000000	0.00000000000000	
17.49826500000000	42.56351700000000	792.66621499999997	62.92550100000000	0.31450000000000	0.00000000000000	0.11978900000000	0.00000000000000	0.00000000000000	0.00000000000000	0.00000000000000	0.00000000000000	0.00000000000000	0.00000000000000	29.08625400000000	0.00000000000000	0.00000000000000	0.00000000000000	0.00000000000000	
17.49993900000000	42.09156700000000	791.40493700000002	62.55479900000000	0.31368700000000	0.00000000000000	0.11976700000000	0.00000000000000	0.00000000000000	0.00000000000000	0.00000000000000	0.00000000000000	0.00000000000000	0.00000000000000	28.87507000000000	0.00000000000000	0.00000000000000	0.00000000000000	0.00000000000000	
17.50161600000000	41.61935100000000	790.03233999999998	62.16769900000000	0.31285900000000	0.00000000000000	0.11974400000000	0.00000000000000	0.00000000000000	0.00000000000000	0.00000000000000	0.00000000000000	0.00000000000000	0.00000000000000	28.65303800000000	0.00000000000000	0.00000000000000	0.00000000000000	0.00000000000000	
17.50326500000000	41.14656400000000	788.55140500000005	61.76498700000000	0.31201200000000	0.00000000000000	0.11972100000000	0.00000000000000	0.00000000000000	0.00000000000000	0.00000000000000	0.00000000000000	0.00000000000000	0.00000000000000	28.42061300000000	0.00000000000000	0.00000000000000	0.00000000000000	0.00000000000000	
17.50493100000000	40.67292800000000	786.96530900000005	61.34749600000000	0.31114700000000	0.00000000000000	0.11969900000000	0.00000000000000	0.00000000000000	0.00000000000000	0.00000000000000	0.00000000000000	0.00000000000000	0.00000000000000	28.17828300000000	0.00000000000000	0.00000000000000	0.00000000000000	0.00000000000000	
